<svg xmlns="http://www.w3.org/2000/svg" width="119" height="119" viewBox="0 0 119 119">
    <g fill="none" fill-rule="evenodd">
        <path d="M0 0h119v119H0z"/>
        <g fill="#C1E5A9" fill-rule="nonzero" opacity=".56">
            <path d="M110.26 56.06c1 11.44-.58 28.27-7.89 39.43-13.12 20-34.71 25.74-57.83 19.45C21.42 108.65 6.28 88.92 5.12 65 3.96 41.08 16.89 20.93 39.29 12.43c37.91-14.43 68 8.79 70.97 43.63z" opacity=".68"/>
            <path d="M112.6 50.6c1 11.44-.58 28.27-7.89 39.43-13.12 20-34.71 25.74-57.83 19.45-23.12-6.29-38.26-26-39.43-49.94C6.28 35.6 19.24 15.47 41.63 7c37.91-14.43 68 8.76 70.97 43.6z"/>
        </g>
        <path fill="#C1E5A9" fill-rule="nonzero" stroke="#C1E5A9" stroke-linecap="round" stroke-linejoin="round" stroke-width="2" d="M92.4 36.22v62.46a3.27 3.27 0 0 1-3.31 3.23h-61a3.27 3.27 0 0 1-3.31-3.23V17.87a3.27 3.27 0 0 1 3.31-3.23h41.5L92.4 36.22z"/>
        <path fill="#FFF" fill-rule="nonzero" d="M89.28 37.94v61.23h-61.5V17.81h40.74"/>
        <path fill="gray" fill-rule="nonzero" stroke="#383838" d="M69.11 18.08v19.91h19.91z"/>
        <path stroke="#383838" d="M38.05 72.38h25.28M38.05 82.42h25.28M70.06 72.38h8.22M70.06 82.42h8.22M89.31 60.95v37.74h-61.5V17.34h40.74M89.31 55.06v3.03M89.31 38.26v12.73"/>
        <text fill="#A2D87E" stroke="#A2D87E" font-family="ProximaNova-Regular, Proxima Nova" font-size="32.71">
            <tspan x="46.06" y="59.36">∑</tspan>
        </text>
    </g>
</svg>
